<?xml version="1.0" encoding="UTF-8" standalone="no"?>
<!DOCTYPE svg PUBLIC "-//W3C//DTD SVG 1.1//EN"
 "http://www.w3.org/Graphics/SVG/1.1/DTD/svg11.dtd">
<!-- Generated by graphviz version 2.40.1 (20161225.0304)
 -->
<!-- Title: G Pages: 1 -->
<svg width="388pt" height="490pt"
 viewBox="0.00 0.00 388.00 489.60" xmlns="http://www.w3.org/2000/svg" xmlns:xlink="http://www.w3.org/1999/xlink">
<g id="graph0" class="graph" transform="scale(1 1) rotate(0) translate(4 485.6)">
<title>G</title>
<polygon fill="#ffffff" stroke="transparent" points="-4,4 -4,-485.6 384,-485.6 384,4 -4,4"/>
<g id="clust1" class="cluster">
<title>cluster___main__</title>
<polygon fill="none" stroke="#000000" stroke-width="2" stroke-opacity="0.800000" points="138,-401.6 138,-473.6 228,-473.6 228,-401.6 138,-401.6"/>
<text text-anchor="middle" x="183" y="-460.6" font-family="Verdana" font-size="10.00" fill="#000000">__main__</text>
</g>
<g id="clust2" class="cluster">
<title>cluster_&lt;module&gt;</title>
<polygon fill="none" stroke="#000000" stroke-width="2" stroke-opacity="0.800000" points="135,-303.2 135,-375.2 231,-375.2 231,-303.2 135,-303.2"/>
<text text-anchor="middle" x="183" y="-362.2" font-family="Verdana" font-size="10.00" fill="#000000">&lt;module&gt;</text>
</g>
<g id="clust3" class="cluster">
<title>cluster_gist_import</title>
<polygon fill="none" stroke="#000000" stroke-width="2" stroke-opacity="0.800000" points="29,-204.8 29,-276.8 119,-276.8 119,-204.8 29,-204.8"/>
<text text-anchor="middle" x="74" y="-263.8" font-family="Verdana" font-size="10.00" fill="#000000">gist_import</text>
</g>
<g id="clust4" class="cluster">
<title>cluster_importlib</title>
<polygon fill="none" stroke="#000000" stroke-width="2" stroke-opacity="0.800000" points="8,-106.4 8,-178.4 130,-178.4 130,-106.4 8,-106.4"/>
<text text-anchor="middle" x="69" y="-165.4" font-family="Verdana" font-size="10.00" fill="#000000">importlib</text>
</g>
<g id="clust5" class="cluster">
<title>cluster_process_ingredients</title>
<polygon fill="none" stroke="#000000" stroke-width="2" stroke-opacity="0.800000" points="131,-204.8 131,-276.8 235,-276.8 235,-204.8 131,-204.8"/>
<text text-anchor="middle" x="183" y="-263.8" font-family="Verdana" font-size="10.00" fill="#000000">process_ingredients</text>
</g>
<g id="clust6" class="cluster">
<title>cluster_gists_packages</title>
<polygon fill="none" stroke="#000000" stroke-width="2" stroke-opacity="0.800000" points="138,-106.4 138,-178.4 228,-178.4 228,-106.4 138,-106.4"/>
<text text-anchor="middle" x="183" y="-165.4" font-family="Verdana" font-size="10.00" fill="#000000">gists_packages</text>
</g>
<g id="clust7" class="cluster">
<title>cluster_gist_api</title>
<polygon fill="none" stroke="#000000" stroke-width="2" stroke-opacity="0.800000" points="40,-8 40,-80 130,-80 130,-8 40,-8"/>
<text text-anchor="middle" x="85" y="-67" font-family="Verdana" font-size="10.00" fill="#000000">gist_api</text>
</g>
<g id="clust8" class="cluster">
<title>cluster_gist_document</title>
<polygon fill="none" stroke="#000000" stroke-width="2" stroke-opacity="0.800000" points="138,-8 138,-80 228,-80 228,-8 138,-8"/>
<text text-anchor="middle" x="183" y="-67" font-family="Verdana" font-size="10.00" fill="#000000">gist_document</text>
</g>
<g id="clust9" class="cluster">
<title>cluster_extract_document_packages</title>
<polygon fill="none" stroke="#000000" stroke-width="2" stroke-opacity="0.800000" points="236,-8 236,-80 372,-80 372,-8 236,-8"/>
<text text-anchor="middle" x="304" y="-67" font-family="Verdana" font-size="10.00" fill="#000000">extract_document_packages</text>
</g>
<g id="clust10" class="cluster">
<title>cluster_install_packages</title>
<polygon fill="none" stroke="#000000" stroke-width="2" stroke-opacity="0.800000" points="236,-106.4 236,-178.4 330,-178.4 330,-106.4 236,-106.4"/>
<text text-anchor="middle" x="283" y="-165.4" font-family="Verdana" font-size="10.00" fill="#000000">install_packages</text>
</g>
<g id="clust11" class="cluster">
<title>cluster_summarize</title>
<polygon fill="none" stroke="#000000" stroke-width="2" stroke-opacity="0.800000" points="243,-204.8 243,-276.8 333,-276.8 333,-204.8 243,-204.8"/>
<text text-anchor="middle" x="288" y="-263.8" font-family="Verdana" font-size="10.00" fill="#000000">summarize</text>
</g>
<!-- __main__ -->
<g id="node1" class="node">
<title>__main__</title>
<polygon fill="#d2e0e5" stroke="#d2e0e5" points="220.5,-445.6 145.5,-445.6 145.5,-409.6 220.5,-409.6 220.5,-445.6"/>
<text text-anchor="middle" x="183" y="-433.9" font-family="Verdana" font-size="7.00" fill="#000000">__main__</text>
<text text-anchor="middle" x="183" y="-425.5" font-family="Verdana" font-size="7.00" fill="#000000">calls: 1</text>
<text text-anchor="middle" x="183" y="-417.1" font-family="Verdana" font-size="7.00" fill="#000000">time: 0.000000s</text>
</g>
<!-- &lt;module&gt; -->
<g id="node2" class="node">
<title>&lt;module&gt;</title>
<polygon fill="#e539ba" stroke="#e539ba" points="223,-347.2 143,-347.2 143,-311.2 223,-311.2 223,-347.2"/>
<text text-anchor="middle" x="183" y="-335.5" font-family="Verdana" font-size="7.00" fill="#000000">&lt;module&gt;</text>
<text text-anchor="middle" x="183" y="-327.1" font-family="Verdana" font-size="7.00" fill="#000000">calls: 1</text>
<text text-anchor="middle" x="183" y="-318.7" font-family="Verdana" font-size="7.00" fill="#000000">time: 10.983390s</text>
</g>
<!-- __main__&#45;&gt;&lt;module&gt; -->
<g id="edge1" class="edge">
<title>__main__&#45;&gt;&lt;module&gt;</title>
<path fill="none" stroke="#b22c91" d="M183,-409.5519C183,-395.0787 183,-374.4956 183,-357.7854"/>
<polygon fill="#b22c91" stroke="#b22c91" points="186.5001,-357.4669 183,-347.4669 179.5001,-357.4669 186.5001,-357.4669"/>
<text text-anchor="middle" x="184.75" y="-385.3" font-family="Verdana" font-size="7.00" fill="#000000">1</text>
</g>
<!-- gist_import -->
<g id="node3" class="node">
<title>gist_import</title>
<polygon fill="#9991e5" stroke="#9991e5" points="111.5,-248.8 36.5,-248.8 36.5,-212.8 111.5,-212.8 111.5,-248.8"/>
<text text-anchor="middle" x="74" y="-237.1" font-family="Verdana" font-size="7.00" fill="#000000">gist_import</text>
<text text-anchor="middle" x="74" y="-228.7" font-family="Verdana" font-size="7.00" fill="#000000">calls: 2</text>
<text text-anchor="middle" x="74" y="-220.3" font-family="Verdana" font-size="7.00" fill="#000000">time: 3.284311s</text>
</g>
<!-- &lt;module&gt;&#45;&gt;gist_import -->
<g id="edge2" class="edge">
<title>&lt;module&gt;&#45;&gt;gist_import</title>
<path fill="none" stroke="#7771b2" d="M163.0077,-311.1519C145.8302,-295.6449 120.8833,-273.124 101.768,-255.8676"/>
<polygon fill="#7771b2" stroke="#7771b2" points="104.0028,-253.1699 94.2347,-249.0669 99.3121,-258.3658 104.0028,-253.1699"/>
<text text-anchor="middle" x="142.75" y="-286.9" font-family="Verdana" font-size="7.00" fill="#000000">2</text>
</g>
<!-- process_ingredients -->
<g id="node5" class="node">
<title>process_ingredients</title>
<polygon fill="#c4d7e5" stroke="#c4d7e5" points="227.5,-248.8 138.5,-248.8 138.5,-212.8 227.5,-212.8 227.5,-248.8"/>
<text text-anchor="middle" x="183" y="-237.1" font-family="Verdana" font-size="7.00" fill="#000000">process_ingredients</text>
<text text-anchor="middle" x="183" y="-228.7" font-family="Verdana" font-size="7.00" fill="#000000">calls: 1</text>
<text text-anchor="middle" x="183" y="-220.3" font-family="Verdana" font-size="7.00" fill="#000000">time: 1.015443s</text>
</g>
<!-- &lt;module&gt;&#45;&gt;process_ingredients -->
<g id="edge3" class="edge">
<title>&lt;module&gt;&#45;&gt;process_ingredients</title>
<path fill="none" stroke="#98a7b2" d="M183,-311.1519C183,-296.6787 183,-276.0956 183,-259.3854"/>
<polygon fill="#98a7b2" stroke="#98a7b2" points="186.5001,-259.0669 183,-249.0669 179.5001,-259.0669 186.5001,-259.0669"/>
<text text-anchor="middle" x="184.75" y="-286.9" font-family="Verdana" font-size="7.00" fill="#000000">1</text>
</g>
<!-- summarize -->
<g id="node11" class="node">
<title>summarize</title>
<polygon fill="#a975e5" stroke="#a975e5" points="325.5,-248.8 250.5,-248.8 250.5,-212.8 325.5,-212.8 325.5,-248.8"/>
<text text-anchor="middle" x="288" y="-237.1" font-family="Verdana" font-size="7.00" fill="#000000">summarize</text>
<text text-anchor="middle" x="288" y="-228.7" font-family="Verdana" font-size="7.00" fill="#000000">calls: 1</text>
<text text-anchor="middle" x="288" y="-220.3" font-family="Verdana" font-size="7.00" fill="#000000">time: 6.681065s</text>
</g>
<!-- &lt;module&gt;&#45;&gt;summarize -->
<g id="edge4" class="edge">
<title>&lt;module&gt;&#45;&gt;summarize</title>
<path fill="none" stroke="#835bb2" d="M202.4446,-311.02C213.2204,-300.9413 226.8565,-288.1814 239,-276.8 246.1274,-270.1199 253.8334,-262.8895 260.9774,-256.183"/>
<polygon fill="#835bb2" stroke="#835bb2" points="263.5604,-258.5588 268.4549,-249.1622 258.7689,-253.4556 263.5604,-258.5588"/>
<text text-anchor="middle" x="230.75" y="-286.9" font-family="Verdana" font-size="7.00" fill="#000000">1</text>
</g>
<!-- importlib.import_module -->
<g id="node4" class="node">
<title>importlib.import_module</title>
<polygon fill="#999ae5" stroke="#999ae5" points="122.5,-150.4 15.5,-150.4 15.5,-114.4 122.5,-114.4 122.5,-150.4"/>
<text text-anchor="middle" x="69" y="-138.7" font-family="Verdana" font-size="7.00" fill="#000000">importlib.import_module</text>
<text text-anchor="middle" x="69" y="-130.3" font-family="Verdana" font-size="7.00" fill="#000000">calls: 2</text>
<text text-anchor="middle" x="69" y="-121.9" font-family="Verdana" font-size="7.00" fill="#000000">time: 2.699237s</text>
</g>
<!-- gist_import&#45;&gt;importlib.import_module -->
<g id="edge5" class="edge">
<title>gist_import&#45;&gt;importlib.import_module</title>
<path fill="none" stroke="#7778b2" d="M73.0829,-212.7519C72.3475,-198.2787 71.3016,-177.6956 70.4525,-160.9854"/>
<polygon fill="#7778b2" stroke="#7778b2" points="73.9313,-160.4764 69.9282,-150.6669 66.9403,-160.8317 73.9313,-160.4764"/>
<text text-anchor="middle" x="74.75" y="-188.5" font-family="Verdana" font-size="7.00" fill="#000000">2</text>
</g>
<!-- gists_packages -->
<g id="node6" class="node">
<title>gists_packages</title>
<polygon fill="#ccdde5" stroke="#ccdde5" points="220.5,-150.4 145.5,-150.4 145.5,-114.4 220.5,-114.4 220.5,-150.4"/>
<text text-anchor="middle" x="183" y="-138.7" font-family="Verdana" font-size="7.00" fill="#000000">gists_packages</text>
<text text-anchor="middle" x="183" y="-130.3" font-family="Verdana" font-size="7.00" fill="#000000">calls: 1</text>
<text text-anchor="middle" x="183" y="-121.9" font-family="Verdana" font-size="7.00" fill="#000000">time: 0.417454s</text>
</g>
<!-- process_ingredients&#45;&gt;gists_packages -->
<g id="edge6" class="edge">
<title>process_ingredients&#45;&gt;gists_packages</title>
<path fill="none" stroke="#9facb2" d="M183,-212.7519C183,-198.2787 183,-177.6956 183,-160.9854"/>
<polygon fill="#9facb2" stroke="#9facb2" points="186.5001,-160.6669 183,-150.6669 179.5001,-160.6669 186.5001,-160.6669"/>
<text text-anchor="middle" x="184.75" y="-188.5" font-family="Verdana" font-size="7.00" fill="#000000">1</text>
</g>
<!-- install_packages -->
<g id="node10" class="node">
<title>install_packages</title>
<polygon fill="#cadbe5" stroke="#cadbe5" points="321.5,-150.4 244.5,-150.4 244.5,-114.4 321.5,-114.4 321.5,-150.4"/>
<text text-anchor="middle" x="283" y="-138.7" font-family="Verdana" font-size="7.00" fill="#000000">install_packages</text>
<text text-anchor="middle" x="283" y="-130.3" font-family="Verdana" font-size="7.00" fill="#000000">calls: 1</text>
<text text-anchor="middle" x="283" y="-121.9" font-family="Verdana" font-size="7.00" fill="#000000">time: 0.597312s</text>
</g>
<!-- process_ingredients&#45;&gt;install_packages -->
<g id="edge7" class="edge">
<title>process_ingredients&#45;&gt;install_packages</title>
<path fill="none" stroke="#9daab2" d="M201.3415,-212.7519C217.0307,-197.3138 239.7845,-174.924 257.2907,-157.698"/>
<polygon fill="#9daab2" stroke="#9daab2" points="259.763,-160.1755 264.4361,-150.6669 254.8534,-155.186 259.763,-160.1755"/>
<text text-anchor="middle" x="228.75" y="-188.5" font-family="Verdana" font-size="7.00" fill="#000000">1</text>
</g>
<!-- gist_api -->
<g id="node7" class="node">
<title>gist_api</title>
<polygon fill="#ccdde5" stroke="#ccdde5" points="122.5,-52 47.5,-52 47.5,-16 122.5,-16 122.5,-52"/>
<text text-anchor="middle" x="85" y="-40.3" font-family="Verdana" font-size="7.00" fill="#000000">gist_api</text>
<text text-anchor="middle" x="85" y="-31.9" font-family="Verdana" font-size="7.00" fill="#000000">calls: 1</text>
<text text-anchor="middle" x="85" y="-23.5" font-family="Verdana" font-size="7.00" fill="#000000">time: 0.409122s</text>
</g>
<!-- gists_packages&#45;&gt;gist_api -->
<g id="edge8" class="edge">
<title>gists_packages&#45;&gt;gist_api</title>
<path fill="none" stroke="#9facb2" d="M165.0253,-114.3519C149.7872,-99.0516 127.7488,-76.9233 110.6559,-59.7606"/>
<polygon fill="#9facb2" stroke="#9facb2" points="112.7292,-56.8825 103.1926,-52.2669 107.7694,-61.8222 112.7292,-56.8825"/>
<text text-anchor="middle" x="146.75" y="-90.1" font-family="Verdana" font-size="7.00" fill="#000000">1</text>
</g>
<!-- gist_document -->
<g id="node8" class="node">
<title>gist_document</title>
<polygon fill="#d2e0e5" stroke="#d2e0e5" points="220.5,-52 145.5,-52 145.5,-16 220.5,-16 220.5,-52"/>
<text text-anchor="middle" x="183" y="-40.3" font-family="Verdana" font-size="7.00" fill="#000000">gist_document</text>
<text text-anchor="middle" x="183" y="-31.9" font-family="Verdana" font-size="7.00" fill="#000000">calls: 1</text>
<text text-anchor="middle" x="183" y="-23.5" font-family="Verdana" font-size="7.00" fill="#000000">time: 0.000007s</text>
</g>
<!-- gists_packages&#45;&gt;gist_document -->
<g id="edge9" class="edge">
<title>gists_packages&#45;&gt;gist_document</title>
<path fill="none" stroke="#a3aeb2" d="M183,-114.3519C183,-99.8787 183,-79.2956 183,-62.5854"/>
<polygon fill="#a3aeb2" stroke="#a3aeb2" points="186.5001,-62.2669 183,-52.2669 179.5001,-62.2669 186.5001,-62.2669"/>
<text text-anchor="middle" x="184.75" y="-90.1" font-family="Verdana" font-size="7.00" fill="#000000">1</text>
</g>
<!-- extract_document_packages -->
<g id="node9" class="node">
<title>extract_document_packages</title>
<polygon fill="#d2e0e5" stroke="#d2e0e5" points="364,-52 244,-52 244,-16 364,-16 364,-52"/>
<text text-anchor="middle" x="304" y="-40.3" font-family="Verdana" font-size="7.00" fill="#000000">extract_document_packages</text>
<text text-anchor="middle" x="304" y="-31.9" font-family="Verdana" font-size="7.00" fill="#000000">calls: 1</text>
<text text-anchor="middle" x="304" y="-23.5" font-family="Verdana" font-size="7.00" fill="#000000">time: 0.007346s</text>
</g>
<!-- gists_packages&#45;&gt;extract_document_packages -->
<g id="edge10" class="edge">
<title>gists_packages&#45;&gt;extract_document_packages</title>
<path fill="none" stroke="#a3aeb2" d="M205.1933,-114.3519C224.4314,-98.707 252.4483,-75.923 273.7393,-58.6087"/>
<polygon fill="#a3aeb2" stroke="#a3aeb2" points="275.9875,-61.2917 281.5377,-52.2669 271.571,-55.8608 275.9875,-61.2917"/>
<text text-anchor="middle" x="237.75" y="-90.1" font-family="Verdana" font-size="7.00" fill="#000000">1</text>
</g>
</g>
</svg>
