<?xml version="1.0" encoding="UTF-8" standalone="no"?>
<!DOCTYPE svg PUBLIC "-//W3C//DTD SVG 1.1//EN"
 "http://www.w3.org/Graphics/SVG/1.1/DTD/svg11.dtd">
<!-- Generated by graphviz version 2.43.0 (0)
 -->
<!-- Title: G Pages: 1 -->
<svg width="696pt" height="253pt"
 viewBox="0.00 0.00 696.00 253.00" xmlns="http://www.w3.org/2000/svg" xmlns:xlink="http://www.w3.org/1999/xlink">
<g id="graph0" class="graph" transform="scale(1 1) rotate(0) translate(4 249)">
<title>G</title>
<polygon fill="white" stroke="transparent" points="-4,4 -4,-249 692,-249 692,4 -4,4"/>
<g id="clust1" class="cluster">
<title>cluster___main__</title>
<polygon fill="none" stroke="#000000" stroke-width="2" stroke-opacity="0.800000" points="8,-87 8,-158 99,-158 99,-87 8,-87"/>
<text text-anchor="middle" x="53.5" y="-146" font-family="Verdana" font-size="10.00">__main__</text>
</g>
<g id="clust2" class="cluster">
<title>cluster_&lt;module&gt;</title>
<polygon fill="none" stroke="#000000" stroke-width="2" stroke-opacity="0.800000" points="124,-87 124,-158 220,-158 220,-87 124,-87"/>
<text text-anchor="middle" x="172" y="-146" font-family="Verdana" font-size="10.00">&lt;module&gt;</text>
</g>
<g id="clust3" class="cluster">
<title>cluster_gist_import</title>
<polygon fill="none" stroke="#000000" stroke-width="2" stroke-opacity="0.800000" points="256,-166 256,-237 347,-237 347,-166 256,-166"/>
<text text-anchor="middle" x="301.5" y="-225" font-family="Verdana" font-size="10.00">gist_import</text>
</g>
<g id="clust4" class="cluster">
<title>cluster_importlib</title>
<polygon fill="none" stroke="#000000" stroke-width="2" stroke-opacity="0.800000" points="384,-166 384,-237 507,-237 507,-166 384,-166"/>
<text text-anchor="middle" x="445.5" y="-225" font-family="Verdana" font-size="10.00">importlib</text>
</g>
<g id="clust5" class="cluster">
<title>cluster_process_ingredients</title>
<polygon fill="none" stroke="#000000" stroke-width="2" stroke-opacity="0.800000" points="245,-87 245,-158 359,-158 359,-87 245,-87"/>
<text text-anchor="middle" x="302" y="-146" font-family="Verdana" font-size="10.00">process_ingredients</text>
</g>
<g id="clust6" class="cluster">
<title>cluster_gists_packages</title>
<polygon fill="none" stroke="#000000" stroke-width="2" stroke-opacity="0.800000" points="400,-87 400,-158 491,-158 491,-87 400,-87"/>
<text text-anchor="middle" x="445.5" y="-146" font-family="Verdana" font-size="10.00">gists_packages</text>
</g>
<g id="clust7" class="cluster">
<title>cluster_gist_api</title>
<polygon fill="none" stroke="#000000" stroke-width="2" stroke-opacity="0.800000" points="564.5,-166 564.5,-237 655.5,-237 655.5,-166 564.5,-166"/>
<text text-anchor="middle" x="610" y="-225" font-family="Verdana" font-size="10.00">gist_api</text>
</g>
<g id="clust8" class="cluster">
<title>cluster_gist_document</title>
<polygon fill="none" stroke="#000000" stroke-width="2" stroke-opacity="0.800000" points="564.5,-87 564.5,-158 655.5,-158 655.5,-87 564.5,-87"/>
<text text-anchor="middle" x="610" y="-146" font-family="Verdana" font-size="10.00">gist_document</text>
</g>
<g id="clust9" class="cluster">
<title>cluster_extract_document_packages</title>
<polygon fill="none" stroke="#000000" stroke-width="2" stroke-opacity="0.800000" points="532,-8 532,-79 688,-79 688,-8 532,-8"/>
<text text-anchor="middle" x="610" y="-67" font-family="Verdana" font-size="10.00">extract_document_packages</text>
</g>
<g id="clust10" class="cluster">
<title>cluster_install_packages</title>
<polygon fill="none" stroke="#000000" stroke-width="2" stroke-opacity="0.800000" points="397,-8 397,-79 495,-79 495,-8 397,-8"/>
<text text-anchor="middle" x="446" y="-67" font-family="Verdana" font-size="10.00">install_packages</text>
</g>
<g id="clust11" class="cluster">
<title>cluster_summarize</title>
<polygon fill="none" stroke="#000000" stroke-width="2" stroke-opacity="0.800000" points="256,-8 256,-79 347,-79 347,-8 256,-8"/>
<text text-anchor="middle" x="301.5" y="-67" font-family="Verdana" font-size="10.00">summarize</text>
</g>
<!-- __main__ -->
<g id="node1" class="node">
<title>__main__</title>
<polygon fill="#d2e0e5" stroke="#d2e0e5" points="91,-131 16,-131 16,-95 91,-95 91,-131"/>
<text text-anchor="middle" x="53.5" y="-119.4" font-family="Verdana" font-size="7.00" fill="#000000">__main__</text>
<text text-anchor="middle" x="53.5" y="-111.4" font-family="Verdana" font-size="7.00" fill="#000000">calls: 1</text>
<text text-anchor="middle" x="53.5" y="-103.4" font-family="Verdana" font-size="7.00" fill="#000000">time: 0.000000s</text>
</g>
<!-- &lt;module&gt; -->
<g id="node2" class="node">
<title>&lt;module&gt;</title>
<polygon fill="#e539ba" stroke="#e539ba" points="212,-131 132,-131 132,-95 212,-95 212,-131"/>
<text text-anchor="middle" x="172" y="-119.4" font-family="Verdana" font-size="7.00" fill="#000000">&lt;module&gt;</text>
<text text-anchor="middle" x="172" y="-111.4" font-family="Verdana" font-size="7.00" fill="#000000">calls: 1</text>
<text text-anchor="middle" x="172" y="-103.4" font-family="Verdana" font-size="7.00" fill="#000000">time: 10.983390s</text>
</g>
<!-- __main__&#45;&gt;&lt;module&gt; -->
<g id="edge1" class="edge">
<title>__main__&#45;&gt;&lt;module&gt;</title>
<path fill="none" stroke="#b22c91" d="M91.04,-113C100.75,-113 111.4,-113 121.67,-113"/>
<polygon fill="#b22c91" stroke="#b22c91" points="121.76,-116.5 131.76,-113 121.76,-109.5 121.76,-116.5"/>
<text text-anchor="middle" x="111.5" y="-115.4" font-family="Verdana" font-size="7.00" fill="#000000">1</text>
</g>
<!-- gist_import -->
<g id="node3" class="node">
<title>gist_import</title>
<polygon fill="#9991e5" stroke="#9991e5" points="339,-210 264,-210 264,-174 339,-174 339,-210"/>
<text text-anchor="middle" x="301.5" y="-198.4" font-family="Verdana" font-size="7.00" fill="#000000">gist_import</text>
<text text-anchor="middle" x="301.5" y="-190.4" font-family="Verdana" font-size="7.00" fill="#000000">calls: 2</text>
<text text-anchor="middle" x="301.5" y="-182.4" font-family="Verdana" font-size="7.00" fill="#000000">time: 3.284311s</text>
</g>
<!-- &lt;module&gt;&#45;&gt;gist_import -->
<g id="edge2" class="edge">
<title>&lt;module&gt;&#45;&gt;gist_import</title>
<path fill="none" stroke="#7771b2" d="M198.24,-131.11C211.87,-140.64 229.11,-152.33 245,-162 248.84,-164.34 252.88,-166.7 256.95,-169.01"/>
<polygon fill="#7771b2" stroke="#7771b2" points="255.41,-172.16 265.85,-173.98 258.82,-166.05 255.41,-172.16"/>
<text text-anchor="middle" x="232.5" y="-157.4" font-family="Verdana" font-size="7.00" fill="#000000">2</text>
</g>
<!-- process_ingredients -->
<g id="node5" class="node">
<title>process_ingredients</title>
<polygon fill="#c4d7e5" stroke="#c4d7e5" points="346,-131 257,-131 257,-95 346,-95 346,-131"/>
<text text-anchor="middle" x="301.5" y="-119.4" font-family="Verdana" font-size="7.00" fill="#000000">process_ingredients</text>
<text text-anchor="middle" x="301.5" y="-111.4" font-family="Verdana" font-size="7.00" fill="#000000">calls: 1</text>
<text text-anchor="middle" x="301.5" y="-103.4" font-family="Verdana" font-size="7.00" fill="#000000">time: 1.015443s</text>
</g>
<!-- &lt;module&gt;&#45;&gt;process_ingredients -->
<g id="edge3" class="edge">
<title>&lt;module&gt;&#45;&gt;process_ingredients</title>
<path fill="none" stroke="#98a7b2" d="M212.29,-113C223.05,-113 234.9,-113 246.33,-113"/>
<polygon fill="#98a7b2" stroke="#98a7b2" points="246.67,-116.5 256.67,-113 246.67,-109.5 246.67,-116.5"/>
<text text-anchor="middle" x="232.5" y="-115.4" font-family="Verdana" font-size="7.00" fill="#000000">1</text>
</g>
<!-- summarize -->
<g id="node11" class="node">
<title>summarize</title>
<polygon fill="#a975e5" stroke="#a975e5" points="339,-52 264,-52 264,-16 339,-16 339,-52"/>
<text text-anchor="middle" x="301.5" y="-40.4" font-family="Verdana" font-size="7.00" fill="#000000">summarize</text>
<text text-anchor="middle" x="301.5" y="-32.4" font-family="Verdana" font-size="7.00" fill="#000000">calls: 1</text>
<text text-anchor="middle" x="301.5" y="-24.4" font-family="Verdana" font-size="7.00" fill="#000000">time: 6.681065s</text>
</g>
<!-- &lt;module&gt;&#45;&gt;summarize -->
<g id="edge4" class="edge">
<title>&lt;module&gt;&#45;&gt;summarize</title>
<path fill="none" stroke="#835bb2" d="M202.25,-94.88C220.23,-83.74 243.45,-69.35 262.8,-57.36"/>
<polygon fill="#835bb2" stroke="#835bb2" points="264.73,-60.28 271.39,-52.04 261.04,-54.33 264.73,-60.28"/>
<text text-anchor="middle" x="232.5" y="-77.4" font-family="Verdana" font-size="7.00" fill="#000000">1</text>
</g>
<!-- importlib.import_module -->
<g id="node4" class="node">
<title>importlib.import_module</title>
<polygon fill="#999ae5" stroke="#999ae5" points="499,-210 392,-210 392,-174 499,-174 499,-210"/>
<text text-anchor="middle" x="445.5" y="-198.4" font-family="Verdana" font-size="7.00" fill="#000000">importlib.import_module</text>
<text text-anchor="middle" x="445.5" y="-190.4" font-family="Verdana" font-size="7.00" fill="#000000">calls: 2</text>
<text text-anchor="middle" x="445.5" y="-182.4" font-family="Verdana" font-size="7.00" fill="#000000">time: 2.699237s</text>
</g>
<!-- gist_import&#45;&gt;importlib.import_module -->
<g id="edge5" class="edge">
<title>gist_import&#45;&gt;importlib.import_module</title>
<path fill="none" stroke="#7778b2" d="M339.07,-192C352.15,-192 367.3,-192 381.96,-192"/>
<polygon fill="#7778b2" stroke="#7778b2" points="382,-195.5 392,-192 382,-188.5 382,-195.5"/>
<text text-anchor="middle" x="371.5" y="-194.4" font-family="Verdana" font-size="7.00" fill="#000000">2</text>
</g>
<!-- gists_packages -->
<g id="node6" class="node">
<title>gists_packages</title>
<polygon fill="#ccdde5" stroke="#ccdde5" points="483,-131 408,-131 408,-95 483,-95 483,-131"/>
<text text-anchor="middle" x="445.5" y="-119.4" font-family="Verdana" font-size="7.00" fill="#000000">gists_packages</text>
<text text-anchor="middle" x="445.5" y="-111.4" font-family="Verdana" font-size="7.00" fill="#000000">calls: 1</text>
<text text-anchor="middle" x="445.5" y="-103.4" font-family="Verdana" font-size="7.00" fill="#000000">time: 0.417454s</text>
</g>
<!-- process_ingredients&#45;&gt;gists_packages -->
<g id="edge6" class="edge">
<title>process_ingredients&#45;&gt;gists_packages</title>
<path fill="none" stroke="#9facb2" d="M346.26,-113C362.59,-113 381.19,-113 397.78,-113"/>
<polygon fill="#9facb2" stroke="#9facb2" points="397.81,-116.5 407.81,-113 397.81,-109.5 397.81,-116.5"/>
<text text-anchor="middle" x="371.5" y="-115.4" font-family="Verdana" font-size="7.00" fill="#000000">1</text>
</g>
<!-- install_packages -->
<g id="node10" class="node">
<title>install_packages</title>
<polygon fill="#cadbe5" stroke="#cadbe5" points="484,-52 407,-52 407,-16 484,-16 484,-52"/>
<text text-anchor="middle" x="445.5" y="-40.4" font-family="Verdana" font-size="7.00" fill="#000000">install_packages</text>
<text text-anchor="middle" x="445.5" y="-32.4" font-family="Verdana" font-size="7.00" fill="#000000">calls: 1</text>
<text text-anchor="middle" x="445.5" y="-24.4" font-family="Verdana" font-size="7.00" fill="#000000">time: 0.597312s</text>
</g>
<!-- process_ingredients&#45;&gt;install_packages -->
<g id="edge7" class="edge">
<title>process_ingredients&#45;&gt;install_packages</title>
<path fill="none" stroke="#9daab2" d="M336.96,-94.93C344.26,-91.04 351.9,-86.92 359,-83 373.87,-74.8 390.06,-65.59 404.31,-57.39"/>
<polygon fill="#9daab2" stroke="#9daab2" points="406.45,-60.19 413.37,-52.16 402.96,-54.13 406.45,-60.19"/>
<text text-anchor="middle" x="371.5" y="-78.4" font-family="Verdana" font-size="7.00" fill="#000000">1</text>
</g>
<!-- gist_api -->
<g id="node7" class="node">
<title>gist_api</title>
<polygon fill="#ccdde5" stroke="#ccdde5" points="647.5,-210 572.5,-210 572.5,-174 647.5,-174 647.5,-210"/>
<text text-anchor="middle" x="610" y="-198.4" font-family="Verdana" font-size="7.00" fill="#000000">gist_api</text>
<text text-anchor="middle" x="610" y="-190.4" font-family="Verdana" font-size="7.00" fill="#000000">calls: 1</text>
<text text-anchor="middle" x="610" y="-182.4" font-family="Verdana" font-size="7.00" fill="#000000">time: 0.409122s</text>
</g>
<!-- gists_packages&#45;&gt;gist_api -->
<g id="edge8" class="edge">
<title>gists_packages&#45;&gt;gist_api</title>
<path fill="none" stroke="#9facb2" d="M475.6,-131.11C491.87,-140.88 512.71,-152.78 532,-162 541.91,-166.74 552.78,-171.33 563.15,-175.43"/>
<polygon fill="#9facb2" stroke="#9facb2" points="561.9,-178.7 572.49,-179.05 564.43,-172.17 561.9,-178.7"/>
<text text-anchor="middle" x="519.5" y="-158.4" font-family="Verdana" font-size="7.00" fill="#000000">1</text>
</g>
<!-- gist_document -->
<g id="node8" class="node">
<title>gist_document</title>
<polygon fill="#d2e0e5" stroke="#d2e0e5" points="647.5,-131 572.5,-131 572.5,-95 647.5,-95 647.5,-131"/>
<text text-anchor="middle" x="610" y="-119.4" font-family="Verdana" font-size="7.00" fill="#000000">gist_document</text>
<text text-anchor="middle" x="610" y="-111.4" font-family="Verdana" font-size="7.00" fill="#000000">calls: 1</text>
<text text-anchor="middle" x="610" y="-103.4" font-family="Verdana" font-size="7.00" fill="#000000">time: 0.000007s</text>
</g>
<!-- gists_packages&#45;&gt;gist_document -->
<g id="edge9" class="edge">
<title>gists_packages&#45;&gt;gist_document</title>
<path fill="none" stroke="#a3aeb2" d="M483.37,-113C506.75,-113 537.19,-113 562.25,-113"/>
<polygon fill="#a3aeb2" stroke="#a3aeb2" points="562.27,-116.5 572.27,-113 562.27,-109.5 562.27,-116.5"/>
<text text-anchor="middle" x="519.5" y="-115.4" font-family="Verdana" font-size="7.00" fill="#000000">1</text>
</g>
<!-- extract_document_packages -->
<g id="node9" class="node">
<title>extract_document_packages</title>
<polygon fill="#d2e0e5" stroke="#d2e0e5" points="670,-52 550,-52 550,-16 670,-16 670,-52"/>
<text text-anchor="middle" x="610" y="-40.4" font-family="Verdana" font-size="7.00" fill="#000000">extract_document_packages</text>
<text text-anchor="middle" x="610" y="-32.4" font-family="Verdana" font-size="7.00" fill="#000000">calls: 1</text>
<text text-anchor="middle" x="610" y="-24.4" font-family="Verdana" font-size="7.00" fill="#000000">time: 0.007346s</text>
</g>
<!-- gists_packages&#45;&gt;extract_document_packages -->
<g id="edge10" class="edge">
<title>gists_packages&#45;&gt;extract_document_packages</title>
<path fill="none" stroke="#a3aeb2" d="M483.37,-95.07C506.79,-83.69 537.3,-68.86 562.39,-56.66"/>
<polygon fill="#a3aeb2" stroke="#a3aeb2" points="564.25,-59.65 571.71,-52.13 561.19,-53.35 564.25,-59.65"/>
<text text-anchor="middle" x="519.5" y="-80.4" font-family="Verdana" font-size="7.00" fill="#000000">1</text>
</g>
</g>
</svg>
