<?xml version="1.0" standalone="no"?>
<!DOCTYPE svg PUBLIC "-//W3C//DTD SVG 20010904//EN"
 "http://www.w3.org/TR/2001/REC-SVG-20010904/DTD/svg10.dtd">
<svg version="1.0" xmlns="http://www.w3.org/2000/svg"
 width="330.000000pt" height="330.000000pt" viewBox="0 0 330.000000 330.000000"
 preserveAspectRatio="xMidYMid meet">
<metadata>
Created by potrace 1.14, written by Peter Selinger 2001-2017
</metadata>
<g transform="translate(0.000000,330.000000) scale(0.100000,-0.100000)"
fill="#000000" stroke="none">
<path d="M783 3250 c-12 -11 -25 -20 -28 -20 -4 0 -25 -18 -47 -40 -23 -22
-37 -40 -32 -40 5 0 5 -4 -1 -8 -19 -14 -86 -102 -78 -102 4 0 0 -5 -10 -11
-9 -6 -15 -14 -13 -18 3 -4 -3 -17 -14 -28 -10 -12 -16 -24 -13 -27 4 -3 2 -6
-4 -6 -11 0 -69 -100 -65 -112 1 -5 -2 -8 -8 -8 -5 0 -10 -4 -10 -9 0 -5 -5
-22 -12 -38 -6 -15 -12 -31 -13 -35 -2 -5 -4 -10 -5 -13 -1 -3 -4 -9 -5 -15
-1 -5 -3 -11 -5 -12 -2 -4 -10 -39 -15 -65 -1 -11 -6 -29 -9 -40 -6 -20 -17
-94 -20 -133 0 -14 -5 -28 -9 -31 -14 -10 -19 -99 -20 -319 -1 -238 2 -290 16
-290 6 0 8 -3 4 -6 -3 -4 3 -24 14 -45 11 -22 17 -39 15 -39 -3 0 8 -24 24
-52 16 -29 38 -71 50 -93 11 -22 34 -55 50 -73 16 -19 32 -42 35 -53 4 -10 13
-19 21 -19 8 0 14 -3 14 -8 0 -4 23 -30 51 -59 29 -30 46 -54 40 -58 -6 -3
-11 -3 -11 2 0 4 -4 4 -8 -2 -11 -16 -129 -75 -148 -75 -22 0 -64 -46 -64 -71
0 -11 -7 -19 -17 -19 -9 0 -14 -3 -11 -6 3 -3 -11 -21 -31 -41 -20 -19 -36
-38 -36 -42 0 -4 -7 -15 -15 -24 -8 -9 -20 -22 -26 -29 -12 -15 -27 -52 -22
-55 2 -1 -6 -9 -17 -17 -11 -9 -16 -16 -12 -16 5 0 -1 -15 -12 -34 -12 -18
-21 -41 -21 -50 0 -9 -4 -16 -9 -16 -5 0 -12 -14 -16 -30 -4 -16 -11 -30 -16
-30 -5 0 -8 -3 -7 -7 4 -16 -31 -83 -43 -83 -7 0 -9 -3 -6 -6 3 -4 2 -15 -4
-25 -7 -13 -6 -19 1 -19 15 0 5 -33 -26 -87 -14 -24 -24 -46 -23 -49 0 -4 -4
-10 -9 -13 -16 -10 -53 -101 -46 -113 4 -6 3 -8 -3 -5 -13 8 -12 11 -19 -195
l-5 -158 1650 0 1651 0 0 203 0 202 -338 -1 c-185 0 -341 2 -347 5 -31 17 -88
19 -127 5 -20 -7 -39 -10 -42 -7 -3 4 -6 1 -6 -6 0 -7 -4 -10 -9 -6 -5 3 -12
1 -16 -5 -4 -6 -10 -8 -15 -5 -5 3 -11 1 -14 -3 -3 -5 -21 -8 -40 -6 -29 4
-34 1 -38 -21 -3 -14 -1 -25 6 -25 6 0 5 -4 -3 -9 -7 -5 -11 -13 -7 -19 14
-23 -1 -25 -203 -23 l-48 1 2 43 c1 23 3 42 4 42 5 0 11 44 15 105 3 36 5 65
6 65 1 0 4 23 6 50 6 76 6 79 14 90 6 9 6 250 0 250 -1 0 -4 29 -5 65 -1 36
-4 67 -5 70 -1 3 -4 23 -5 45 -1 22 -3 42 -5 45 -1 3 -4 25 -5 50 -2 25 -6 56
-10 70 -4 14 -7 37 -7 53 1 15 -3 27 -9 27 -11 0 28 70 45 82 7 5 7 8 1 8 -7
0 -7 3 0 8 8 6 46 76 50 92 5 23 30 80 36 80 3 0 5 11 4 25 -2 14 0 25 4 25 4
0 8 11 9 26 1 14 7 34 12 44 6 11 13 48 15 82 2 35 5 63 5 63 1 0 3 9 5 20 2
11 11 25 19 31 20 14 20 30 2 37 -12 5 -19 43 -32 187 -1 19 -12 61 -23 93
-11 32 -20 62 -19 65 1 4 -4 21 -11 37 -7 17 -14 37 -16 45 -2 8 -4 17 -5 20
-1 3 -2 8 -1 13 0 4 -4 7 -9 7 -5 0 -9 3 -9 8 1 4 1 9 -1 12 -1 3 -4 16 -7 30
-7 36 -11 54 -14 60 -1 3 -3 10 -4 15 -1 6 -5 17 -8 25 -9 23 -27 84 -28 95
-1 6 -7 18 -14 29 -8 10 -11 25 -8 32 3 8 1 14 -5 14 -5 0 -12 13 -15 29 -8
36 -77 183 -91 193 -6 4 -7 8 -3 8 5 0 -1 15 -12 33 -11 19 -18 37 -14 40 3 4
2 7 -3 7 -6 0 -16 16 -24 35 -7 19 -18 31 -23 28 -6 -4 -8 0 -4 10 4 11 1 17
-9 17 -8 0 -13 4 -10 9 3 5 -1 11 -9 15 -8 3 -15 12 -15 21 0 8 -4 15 -8 15
-5 0 -13 10 -19 22 l-9 22 -21 -21 c-21 -21 -22 -36 -4 -105 5 -21 6 -38 2
-38 -6 0 -8 -20 -12 -140 -1 -36 -5 -69 -8 -75 -3 -5 -5 -25 -6 -43 0 -27 -4
-35 -17 -31 -2 0 -14 3 -28 5 -14 3 -26 9 -28 14 -2 6 -15 10 -28 10 -13 0
-32 4 -42 10 -26 14 -151 42 -161 35 -5 -3 -12 -1 -15 3 -3 5 -22 8 -43 6
-117 -9 -192 -15 -223 -20 -19 -3 -47 -6 -62 -7 -16 -1 -28 -4 -28 -7 0 -3
-10 -6 -22 -7 -11 -1 -25 -8 -29 -15 -7 -10 -9 -10 -9 2 0 9 -3 11 -8 5 -4 -5
-14 -12 -22 -13 -8 -2 -24 -6 -35 -9 -60 -14 -60 -15 -71 77 -8 69 -12 89 -20
101 -5 8 -3 9 6 4 9 -6 11 -4 5 5 -4 7 -9 45 -10 84 -1 39 -3 90 -4 114 0 24
-5 41 -10 38 -5 -4 -11 -1 -13 4 -2 6 -13 2 -25 -10z m1242 -1972 c14 -79 26
-190 28 -255 0 -18 5 -33 10 -33 5 0 5 -6 -1 -13 -11 -13 -11 -34 0 -53 11
-17 7 -181 -6 -258 -7 -39 -12 -86 -11 -103 0 -18 -3 -33 -8 -33 -4 0 -5 -5
-2 -10 4 -6 2 -41 -4 -78 -21 -132 -27 -150 -49 -154 -25 -6 -86 12 -95 28 -4
8 -15 14 -22 14 -8 0 -15 7 -15 16 0 8 -5 12 -10 9 -6 -3 -13 1 -16 9 -3 9
-10 14 -14 11 -4 -3 -26 13 -49 35 -23 22 -45 40 -51 40 -5 0 -14 9 -20 20 -6
11 -16 20 -23 20 -13 0 -31 37 -41 85 -6 30 -13 55 -16 65 -1 3 -3 10 -4 15
-1 6 -7 23 -14 38 -7 16 -12 34 -12 41 0 6 -5 17 -12 24 -7 7 -8 12 -2 12 5 0
3 4 -4 8 -7 5 -14 23 -15 40 -1 18 -5 32 -8 32 -7 0 -34 81 -31 93 1 4 -2 7
-8 7 -6 0 -9 3 -8 8 4 17 -14 72 -25 72 -8 0 -8 3 1 12 6 6 26 11 44 10 41 -1
185 36 218 57 14 9 43 25 65 36 22 11 47 28 56 37 9 10 19 18 23 18 14 0 106
85 106 98 0 9 14 19 31 21 4 1 10 -18 14 -41z"/>
<path d="M3040 2239 c-16 -17 -19 -27 -25 -73 -2 -16 -9 -32 -16 -36 -8 -6 -8
-9 0 -15 7 -4 8 -12 3 -18 -4 -7 -8 -19 -7 -27 1 -8 -5 -36 -12 -63 -8 -26
-11 -52 -8 -57 3 -6 1 -10 -5 -10 -6 0 -9 -4 -6 -9 4 -5 0 -12 -6 -14 -10 -4
-10 -6 0 -6 9 -1 10 -6 3 -20 -6 -10 -8 -21 -5 -24 3 -3 2 -12 -2 -19 -5 -7
-9 -21 -10 -30 -1 -10 -3 -19 -4 -20 -3 -3 -8 -31 -14 -73 -2 -16 -5 -30 -6
-30 -1 0 -4 -20 -6 -45 -3 -25 -9 -47 -14 -50 -5 -3 -9 -14 -8 -25 1 -23 -11
-85 -18 -97 -3 -4 0 -8 6 -8 7 0 6 -8 -4 -21 -8 -12 -12 -28 -9 -35 3 -8 1
-14 -4 -14 -5 0 -9 -18 -8 -40 1 -22 -3 -40 -9 -40 -5 0 -7 -3 -4 -6 4 -3 2
-20 -4 -37 -6 -18 -10 -42 -9 -54 0 -13 -3 -23 -7 -23 -5 0 -8 -10 -7 -22 1
-13 -4 -48 -11 -79 -14 -62 -20 -89 -29 -134 -3 -16 -15 -77 -27 -135 -34
-169 -36 -158 45 -239 38 -39 74 -71 78 -71 5 0 16 -8 26 -18 16 -17 36 -19
208 -18 l190 1 3 886 2 885 -122 0 c-99 -1 -126 -4 -138 -17z"/>
</g>
</svg>
