<svg width="936" height="841" viewBox="0 0 702 630.75" xmlns="http://www.w3.org/2000/svg" xmlns:xlink="http://www.w3.org/1999/xlink">
<g id="graph0" class="graph" transform="translate(3.8465753424657536,602.1372035196383) scale(0.9616438356164384)">
<title>G</title>
<polygon fill="white" stroke="transparent" points="-4,4 -4,-600.4 726,-600.4 726,4 -4,4"/>
<text text-anchor="middle" x="361" y="-6.1" font-family="Verdana" font-size="7.00" fill="#000000" fill-opacity="0.498039">Generated by Python Call Graph v1.1.3</text>
<g id="clust1" class="cluster">
<title>cluster___main__</title>
<polygon fill="none" stroke="#000000" stroke-width="2" stroke-opacity="0.800000" points="483,-516.4 483,-588.4 575,-588.4 575,-516.4 483,-516.4"/>
<text text-anchor="middle" x="529" y="-575.4" font-family="Verdana" font-size="10.00">__main__</text>
</g>
<g id="clust2" class="cluster">
<title>cluster_&lt;module&gt;</title>
<polygon fill="none" stroke="#000000" stroke-width="2" stroke-opacity="0.800000" points="483,-418 483,-490 575,-490 575,-418 483,-418"/>
<text text-anchor="middle" x="529" y="-477" font-family="Verdana" font-size="10.00">&lt;module&gt;</text>
</g>
<g id="clust3" class="cluster">
<title>cluster_ingredients_import</title>
<polygon fill="none" stroke="#000000" stroke-width="2" stroke-opacity="0.800000" points="416,-319.6 416,-391.6 518,-391.6 518,-319.6 416,-319.6"/>
<text text-anchor="middle" x="467" y="-378.6" font-family="Verdana" font-size="10.00">ingredients_import</text>
</g>
<g id="clust4" class="cluster">
<title>cluster_process_gist_ingredient</title>
<polygon fill="none" stroke="#000000" stroke-width="2" stroke-opacity="0.800000" points="407,-221.2 407,-293.2 527,-293.2 527,-221.2 407,-221.2"/>
<text text-anchor="middle" x="467" y="-280.2" font-family="Verdana" font-size="10.00">process_gist_ingredient</text>
</g>
<g id="clust5" class="cluster">
<title>cluster_gist_packages</title>
<polygon fill="none" stroke="#000000" stroke-width="2" stroke-opacity="0.800000" points="164,-122.8 164,-194.8 256,-194.8 256,-122.8 164,-122.8"/>
<text text-anchor="middle" x="210" y="-181.8" font-family="Verdana" font-size="10.00">gist_packages</text>
</g>
<g id="clust6" class="cluster">
<title>cluster_gist_api</title>
<polygon fill="none" stroke="#000000" stroke-width="2" stroke-opacity="0.800000" points="8,-24.4 8,-96.4 100,-96.4 100,-24.4 8,-24.4"/>
<text text-anchor="middle" x="54" y="-83.4" font-family="Verdana" font-size="10.00">gist_api</text>
</g>
<g id="clust7" class="cluster">
<title>cluster_gist_document</title>
<polygon fill="none" stroke="#000000" stroke-width="2" stroke-opacity="0.800000" points="108,-24.4 108,-96.4 200,-96.4 200,-24.4 108,-24.4"/>
<text text-anchor="middle" x="154" y="-83.4" font-family="Verdana" font-size="10.00">gist_document</text>
</g>
<g id="clust8" class="cluster">
<title>cluster_extract_document_packages</title>
<polygon fill="none" stroke="#000000" stroke-width="2" stroke-opacity="0.800000" points="208,-24.4 208,-96.4 344,-96.4 344,-24.4 208,-24.4"/>
<text text-anchor="middle" x="276" y="-83.4" font-family="Verdana" font-size="10.00">extract_document_packages</text>
</g>
<g id="clust9" class="cluster">
<title>cluster_install_packages</title>
<polygon fill="none" stroke="#000000" stroke-width="2" stroke-opacity="0.800000" points="365,-122.8 365,-194.8 459,-194.8 459,-122.8 365,-122.8"/>
<text text-anchor="middle" x="412" y="-181.8" font-family="Verdana" font-size="10.00">install_packages</text>
</g>
<g id="clust10" class="cluster">
<title>cluster_subprocess</title>
<polygon fill="none" stroke="#000000" stroke-width="2" stroke-opacity="0.800000" points="352,-24.4 352,-96.4 464,-96.4 464,-24.4 352,-24.4"/>
<text text-anchor="middle" x="408" y="-83.4" font-family="Verdana" font-size="10.00">subprocess</text>
</g>
<g id="clust11" class="cluster">
<title>cluster_posixpath</title>
<polygon fill="none" stroke="#000000" stroke-width="2" stroke-opacity="0.800000" points="474,-122.8 474,-194.8 574,-194.8 574,-122.8 474,-122.8"/>
<text text-anchor="middle" x="524" y="-181.8" font-family="Verdana" font-size="10.00">posixpath</text>
</g>
<g id="clust12" class="cluster">
<title>cluster_genericpath</title>
<polygon fill="none" stroke="#000000" stroke-width="2" stroke-opacity="0.800000" points="472,-24.4 472,-96.4 582,-96.4 582,-24.4 472,-24.4"/>
<text text-anchor="middle" x="527" y="-83.4" font-family="Verdana" font-size="10.00">genericpath</text>
</g>
<g id="clust13" class="cluster">
<title>cluster_gist_import</title>
<polygon fill="none" stroke="#000000" stroke-width="2" stroke-opacity="0.800000" points="596,-122.8 596,-194.8 688,-194.8 688,-122.8 596,-122.8"/>
<text text-anchor="middle" x="642" y="-181.8" font-family="Verdana" font-size="10.00">gist_import</text>
</g>
<g id="clust14" class="cluster">
<title>cluster_importlib</title>
<polygon fill="none" stroke="#000000" stroke-width="2" stroke-opacity="0.800000" points="590,-24.4 590,-96.4 714,-96.4 714,-24.4 590,-24.4"/>
<text text-anchor="middle" x="652" y="-83.4" font-family="Verdana" font-size="10.00">importlib</text>
</g>
<g id="clust15" class="cluster">
<title>cluster_tell_me_a_joke</title>
<polygon fill="none" stroke="#000000" stroke-width="2" stroke-opacity="0.800000" points="526,-319.6 526,-391.6 618,-391.6 618,-319.6 526,-319.6"/>
<text text-anchor="middle" x="572" y="-378.6" font-family="Verdana" font-size="10.00">tell_me_a_joke</text>
</g>
<!-- __main__ -->
<g id="node1" class="node">
<title>__main__</title>
<polygon fill="#d2e0e5" stroke="#d2e0e5" points="566.5,-560.4 491.5,-560.4 491.5,-524.4 566.5,-524.4 566.5,-560.4"/>
<text text-anchor="middle" x="529" y="-548.7" font-family="Verdana" font-size="7.00" fill="#000000">__main__</text>
<text text-anchor="middle" x="529" y="-540.3" font-family="Verdana" font-size="7.00" fill="#000000">calls: 1</text>
<text text-anchor="middle" x="529" y="-531.9" font-family="Verdana" font-size="7.00" fill="#000000">time: 0.000000s</text>
</g>
<!-- &lt;module&gt; -->
<g id="node2" class="node">
<title>&lt;module&gt;</title>
<polygon fill="#e539ba" stroke="#e539ba" points="566.5,-462 491.5,-462 491.5,-426 566.5,-426 566.5,-462"/>
<text text-anchor="middle" x="529" y="-450.3" font-family="Verdana" font-size="7.00" fill="#000000">&lt;module&gt;</text>
<text text-anchor="middle" x="529" y="-441.9" font-family="Verdana" font-size="7.00" fill="#000000">calls: 1</text>
<text text-anchor="middle" x="529" y="-433.5" font-family="Verdana" font-size="7.00" fill="#000000">time: 5.832085s</text>
</g>
<!-- __main__&#45;&gt;&lt;module&gt; -->
<g id="edge1" class="edge">
<title>__main__-&gt;&lt;module&gt;</title>
<path fill="none" stroke="#b22c91" d="M529,-524.17C529,-509.77 529,-488.99 529,-472.33"/>
<polygon fill="#b22c91" stroke="#b22c91" points="532.5,-472.09 529,-462.09 525.5,-472.09 532.5,-472.09"/>
<text text-anchor="middle" x="530.75" y="-500.1" font-family="Verdana" font-size="7.00" fill="#000000">1</text>
</g>
<!-- ingredients_import -->
<g id="node3" class="node">
<title>ingredients_import</title>
<polygon fill="#ad71e5" stroke="#ad71e5" points="510,-363.6 424,-363.6 424,-327.6 510,-327.6 510,-363.6"/>
<text text-anchor="middle" x="467" y="-351.9" font-family="Verdana" font-size="7.00" fill="#000000">ingredients_import</text>
<text text-anchor="middle" x="467" y="-343.5" font-family="Verdana" font-size="7.00" fill="#000000">calls: 1</text>
<text text-anchor="middle" x="467" y="-335.1" font-family="Verdana" font-size="7.00" fill="#000000">time: 3.688850s</text>
</g>
<!-- &lt;module&gt;&#45;&gt;ingredients_import -->
<g id="edge2" class="edge">
<title>&lt;module&gt;-&gt;ingredients_import</title>
<path fill="none" stroke="#8658b2" d="M517.92,-425.77C508.39,-410.96 494.52,-389.4 483.67,-372.51"/>
<polygon fill="#8658b2" stroke="#8658b2" points="486.34,-370.2 477.99,-363.69 480.45,-373.99 486.34,-370.2"/>
<text text-anchor="middle" x="506.75" y="-401.7" font-family="Verdana" font-size="7.00" fill="#000000">1</text>
</g>
<!-- tell_me_a_joke -->
<g id="node15" class="node">
<title>tell_me_a_joke</title>
<polygon fill="#d2e0e5" stroke="#d2e0e5" points="609.5,-363.6 534.5,-363.6 534.5,-327.6 609.5,-327.6 609.5,-363.6"/>
<text text-anchor="middle" x="572" y="-351.9" font-family="Verdana" font-size="7.00" fill="#000000">tell_me_a_joke</text>
<text text-anchor="middle" x="572" y="-343.5" font-family="Verdana" font-size="7.00" fill="#000000">calls: 1</text>
<text text-anchor="middle" x="572" y="-335.1" font-family="Verdana" font-size="7.00" fill="#000000">time: 0.000198s</text>
</g>
<!-- &lt;module&gt;&#45;&gt;tell_me_a_joke -->
<g id="edge3" class="edge">
<title>&lt;module&gt;-&gt;tell_me_a_joke</title>
<path fill="none" stroke="#a3aeb2" d="M536.69,-425.77C543.23,-411.1 552.73,-389.8 560.23,-372.98"/>
<polygon fill="#a3aeb2" stroke="#a3aeb2" points="563.5,-374.24 564.38,-363.69 557.11,-371.39 563.5,-374.24"/>
<text text-anchor="middle" x="548.75" y="-401.7" font-family="Verdana" font-size="7.00" fill="#000000">1</text>
</g>
<!-- process_gist_ingredient -->
<g id="node4" class="node">
<title>process_gist_ingredient</title>
<polygon fill="#ad71e5" stroke="#ad71e5" points="518.5,-265.2 415.5,-265.2 415.5,-229.2 518.5,-229.2 518.5,-265.2"/>
<text text-anchor="middle" x="467" y="-253.5" font-family="Verdana" font-size="7.00" fill="#000000">process_gist_ingredient</text>
<text text-anchor="middle" x="467" y="-245.1" font-family="Verdana" font-size="7.00" fill="#000000">calls: 1</text>
<text text-anchor="middle" x="467" y="-236.7" font-family="Verdana" font-size="7.00" fill="#000000">time: 3.688573s</text>
</g>
<!-- ingredients_import&#45;&gt;process_gist_ingredient -->
<g id="edge4" class="edge">
<title>ingredients_import-&gt;process_gist_ingredient</title>
<path fill="none" stroke="#8658b2" d="M467,-327.37C467,-312.97 467,-292.19 467,-275.53"/>
<polygon fill="#8658b2" stroke="#8658b2" points="470.5,-275.29 467,-265.29 463.5,-275.29 470.5,-275.29"/>
<text text-anchor="middle" x="468.75" y="-303.3" font-family="Verdana" font-size="7.00" fill="#000000">1</text>
</g>
<!-- gist_packages -->
<g id="node5" class="node">
<title>gist_packages</title>
<polygon fill="#b9cbe5" stroke="#b9cbe5" points="247.5,-166.8 172.5,-166.8 172.5,-130.8 247.5,-130.8 247.5,-166.8"/>
<text text-anchor="middle" x="210" y="-155.1" font-family="Verdana" font-size="7.00" fill="#000000">gist_packages</text>
<text text-anchor="middle" x="210" y="-146.7" font-family="Verdana" font-size="7.00" fill="#000000">calls: 1</text>
<text text-anchor="middle" x="210" y="-138.3" font-family="Verdana" font-size="7.00" fill="#000000">time: 0.956477s</text>
</g>
<!-- process_gist_ingredient&#45;&gt;gist_packages -->
<g id="edge5" class="edge">
<title>process_gist_ingredient-&gt;gist_packages</title>
<path fill="none" stroke="#909eb2" d="M421.65,-229.19C375.5,-211.88 304.29,-185.17 257.41,-167.59"/>
<polygon fill="#909eb2" stroke="#909eb2" points="258.39,-164.21 247.8,-163.98 255.93,-170.77 258.39,-164.21"/>
<text text-anchor="middle" x="370.75" y="-204.9" font-family="Verdana" font-size="7.00" fill="#000000">1</text>
</g>
<!-- install_packages -->
<g id="node9" class="node">
<title>install_packages</title>
<polygon fill="#b6c9e5" stroke="#b6c9e5" points="450.5,-166.8 373.5,-166.8 373.5,-130.8 450.5,-130.8 450.5,-166.8"/>
<text text-anchor="middle" x="412" y="-155.1" font-family="Verdana" font-size="7.00" fill="#000000">install_packages</text>
<text text-anchor="middle" x="412" y="-146.7" font-family="Verdana" font-size="7.00" fill="#000000">calls: 1</text>
<text text-anchor="middle" x="412" y="-138.3" font-family="Verdana" font-size="7.00" fill="#000000">time: 1.047876s</text>
</g>
<!-- process_gist_ingredient&#45;&gt;install_packages -->
<g id="edge6" class="edge">
<title>process_gist_ingredient-&gt;install_packages</title>
<path fill="none" stroke="#8e9cb2" d="M457.17,-228.97C448.72,-214.16 436.42,-192.6 426.78,-175.71"/>
<polygon fill="#8e9cb2" stroke="#8e9cb2" points="429.74,-173.84 421.75,-166.89 423.66,-177.31 429.74,-173.84"/>
<text text-anchor="middle" x="447.75" y="-204.9" font-family="Verdana" font-size="7.00" fill="#000000">1</text>
</g>
<!-- posixpath.splitext -->
<g id="node11" class="node">
<title>posixpath.splitext</title>
<polygon fill="#d2e0e5" stroke="#d2e0e5" points="565.5,-166.8 482.5,-166.8 482.5,-130.8 565.5,-130.8 565.5,-166.8"/>
<text text-anchor="middle" x="524" y="-155.1" font-family="Verdana" font-size="7.00" fill="#000000">posixpath.splitext</text>
<text text-anchor="middle" x="524" y="-146.7" font-family="Verdana" font-size="7.00" fill="#000000">calls: 1</text>
<text text-anchor="middle" x="524" y="-138.3" font-family="Verdana" font-size="7.00" fill="#000000">time: 0.000099s</text>
</g>
<!-- process_gist_ingredient&#45;&gt;posixpath.splitext -->
<g id="edge7" class="edge">
<title>process_gist_ingredient-&gt;posixpath.splitext</title>
<path fill="none" stroke="#a3aeb2" d="M477.19,-228.97C485.94,-214.16 498.7,-192.6 508.68,-175.71"/>
<polygon fill="#a3aeb2" stroke="#a3aeb2" points="511.82,-177.27 513.9,-166.89 505.8,-173.71 511.82,-177.27"/>
<text text-anchor="middle" x="493.75" y="-204.9" font-family="Verdana" font-size="7.00" fill="#000000">1</text>
</g>
<!-- gist_import -->
<g id="node13" class="node">
<title>gist_import</title>
<polygon fill="#a6b1e5" stroke="#a6b1e5" points="679.5,-166.8 604.5,-166.8 604.5,-130.8 679.5,-130.8 679.5,-166.8"/>
<text text-anchor="middle" x="642" y="-155.1" font-family="Verdana" font-size="7.00" fill="#000000">gist_import</text>
<text text-anchor="middle" x="642" y="-146.7" font-family="Verdana" font-size="7.00" fill="#000000">calls: 1</text>
<text text-anchor="middle" x="642" y="-138.3" font-family="Verdana" font-size="7.00" fill="#000000">time: 1.682546s</text>
</g>
<!-- process_gist_ingredient&#45;&gt;gist_import -->
<g id="edge8" class="edge">
<title>process_gist_ingredient-&gt;gist_import</title>
<path fill="none" stroke="#8189b2" d="M508.48,-229.11C529.73,-219.83 555.74,-207.64 578,-194.8 589.31,-188.28 601.14,-180.31 611.52,-172.9"/>
<polygon fill="#8189b2" stroke="#8189b2" points="613.81,-175.57 619.84,-166.86 609.7,-169.9 613.81,-175.57"/>
<text text-anchor="middle" x="564.75" y="-204.9" font-family="Verdana" font-size="7.00" fill="#000000">1</text>
</g>
<!-- gist_api -->
<g id="node6" class="node">
<title>gist_api</title>
<polygon fill="#b9cce5" stroke="#b9cce5" points="91.5,-68.4 16.5,-68.4 16.5,-32.4 91.5,-32.4 91.5,-68.4"/>
<text text-anchor="middle" x="54" y="-56.7" font-family="Verdana" font-size="7.00" fill="#000000">gist_api</text>
<text text-anchor="middle" x="54" y="-48.3" font-family="Verdana" font-size="7.00" fill="#000000">calls: 1</text>
<text text-anchor="middle" x="54" y="-39.9" font-family="Verdana" font-size="7.00" fill="#000000">time: 0.948932s</text>
</g>
<!-- gist_packages&#45;&gt;gist_api -->
<g id="edge9" class="edge">
<title>gist_packages-&gt;gist_api</title>
<path fill="none" stroke="#909eb2" d="M172.3,-132.63C151.39,-123.46 125.38,-110.78 104,-96.4 94.99,-90.34 85.93,-82.74 78.04,-75.53"/>
<polygon fill="#909eb2" stroke="#909eb2" points="80.27,-72.82 70.59,-68.51 75.47,-77.91 80.27,-72.82"/>
<text text-anchor="middle" x="129.75" y="-106.5" font-family="Verdana" font-size="7.00" fill="#000000">1</text>
</g>
<!-- gist_document -->
<g id="node7" class="node">
<title>gist_document</title>
<polygon fill="#d2e0e5" stroke="#d2e0e5" points="191.5,-68.4 116.5,-68.4 116.5,-32.4 191.5,-32.4 191.5,-68.4"/>
<text text-anchor="middle" x="154" y="-56.7" font-family="Verdana" font-size="7.00" fill="#000000">gist_document</text>
<text text-anchor="middle" x="154" y="-48.3" font-family="Verdana" font-size="7.00" fill="#000000">calls: 1</text>
<text text-anchor="middle" x="154" y="-39.9" font-family="Verdana" font-size="7.00" fill="#000000">time: 0.000007s</text>
</g>
<!-- gist_packages&#45;&gt;gist_document -->
<g id="edge10" class="edge">
<title>gist_packages-&gt;gist_document</title>
<path fill="none" stroke="#a3aeb2" d="M199.99,-130.57C191.39,-115.76 178.86,-94.2 169.05,-77.31"/>
<polygon fill="#a3aeb2" stroke="#a3aeb2" points="171.97,-75.37 163.93,-68.49 165.92,-78.89 171.97,-75.37"/>
<text text-anchor="middle" x="189.75" y="-106.5" font-family="Verdana" font-size="7.00" fill="#000000">1</text>
</g>
<!-- extract_document_packages -->
<g id="node8" class="node">
<title>extract_document_packages</title>
<polygon fill="#d2e0e5" stroke="#d2e0e5" points="336,-68.4 216,-68.4 216,-32.4 336,-32.4 336,-68.4"/>
<text text-anchor="middle" x="276" y="-56.7" font-family="Verdana" font-size="7.00" fill="#000000">extract_document_packages</text>
<text text-anchor="middle" x="276" y="-48.3" font-family="Verdana" font-size="7.00" fill="#000000">calls: 1</text>
<text text-anchor="middle" x="276" y="-39.9" font-family="Verdana" font-size="7.00" fill="#000000">time: 0.006543s</text>
</g>
<!-- gist_packages&#45;&gt;extract_document_packages -->
<g id="edge11" class="edge">
<title>gist_packages-&gt;extract_document_packages</title>
<path fill="none" stroke="#a3aeb2" d="M221.8,-130.57C232.03,-115.62 246.97,-93.8 258.58,-76.84"/>
<polygon fill="#a3aeb2" stroke="#a3aeb2" points="261.54,-78.71 264.3,-68.49 255.77,-74.76 261.54,-78.71"/>
<text text-anchor="middle" x="240.75" y="-106.5" font-family="Verdana" font-size="7.00" fill="#000000">1</text>
</g>
<!-- subprocess.check_call -->
<g id="node10" class="node">
<title>subprocess.check_call</title>
<polygon fill="#b6c9e5" stroke="#b6c9e5" points="456,-68.4 360,-68.4 360,-32.4 456,-32.4 456,-68.4"/>
<text text-anchor="middle" x="408" y="-56.7" font-family="Verdana" font-size="7.00" fill="#000000">subprocess.check_call</text>
<text text-anchor="middle" x="408" y="-48.3" font-family="Verdana" font-size="7.00" fill="#000000">calls: 1</text>
<text text-anchor="middle" x="408" y="-39.9" font-family="Verdana" font-size="7.00" fill="#000000">time: 1.047753s</text>
</g>
<!-- install_packages&#45;&gt;subprocess.check_call -->
<g id="edge12" class="edge">
<title>install_packages-&gt;subprocess.check_call</title>
<path fill="none" stroke="#8e9cb2" d="M411.28,-130.57C410.69,-116.17 409.83,-95.39 409.13,-78.73"/>
<polygon fill="#8e9cb2" stroke="#8e9cb2" points="412.62,-78.33 408.71,-68.49 405.63,-78.62 412.62,-78.33"/>
<text text-anchor="middle" x="411.75" y="-106.5" font-family="Verdana" font-size="7.00" fill="#000000">1</text>
</g>
<!-- genericpath._splitext -->
<g id="node12" class="node">
<title>genericpath._splitext</title>
<polygon fill="#d2e0e5" stroke="#d2e0e5" points="574,-68.4 480,-68.4 480,-32.4 574,-32.4 574,-68.4"/>
<text text-anchor="middle" x="527" y="-56.7" font-family="Verdana" font-size="7.00" fill="#000000">genericpath._splitext</text>
<text text-anchor="middle" x="527" y="-48.3" font-family="Verdana" font-size="7.00" fill="#000000">calls: 1</text>
<text text-anchor="middle" x="527" y="-39.9" font-family="Verdana" font-size="7.00" fill="#000000">time: 0.000013s</text>
</g>
<!-- posixpath.splitext&#45;&gt;genericpath._splitext -->
<g id="edge13" class="edge">
<title>posixpath.splitext-&gt;genericpath._splitext</title>
<path fill="none" stroke="#a3aeb2" d="M524.54,-130.57C524.98,-116.17 525.63,-95.39 526.15,-78.73"/>
<polygon fill="#a3aeb2" stroke="#a3aeb2" points="529.66,-78.59 526.47,-68.49 522.66,-78.37 529.66,-78.59"/>
<text text-anchor="middle" x="526.75" y="-106.5" font-family="Verdana" font-size="7.00" fill="#000000">1</text>
</g>
<!-- importlib.import_module -->
<g id="node14" class="node">
<title>importlib.import_module</title>
<polygon fill="#b3c5e5" stroke="#b3c5e5" points="705.5,-68.4 598.5,-68.4 598.5,-32.4 705.5,-32.4 705.5,-68.4"/>
<text text-anchor="middle" x="652" y="-56.7" font-family="Verdana" font-size="7.00" fill="#000000">importlib.import_module</text>
<text text-anchor="middle" x="652" y="-48.3" font-family="Verdana" font-size="7.00" fill="#000000">calls: 1</text>
<text text-anchor="middle" x="652" y="-39.9" font-family="Verdana" font-size="7.00" fill="#000000">time: 1.162199s</text>
</g>
<!-- gist_import&#45;&gt;importlib.import_module -->
<g id="edge14" class="edge">
<title>gist_import-&gt;importlib.import_module</title>
<path fill="none" stroke="#8b99b2" d="M643.79,-130.57C645.28,-116.17 647.44,-95.39 649.17,-78.73"/>
<polygon fill="#8b99b2" stroke="#8b99b2" points="652.68,-78.79 650.23,-68.49 645.71,-78.07 652.68,-78.79"/>
<text text-anchor="middle" x="647.75" y="-106.5" font-family="Verdana" font-size="7.00" fill="#000000">1</text>
</g>
</g>
</svg>